<?xml version="1.0" standalone="no"?><!DOCTYPE svg PUBLIC "-//W3C//DTD SVG 1.1//EN" "http://www.w3.org/Graphics/SVG/1.1/DTD/svg11.dtd"><svg t="1583941403608" class="icon" viewBox="0 0 1024 1024" version="1.1" xmlns="http://www.w3.org/2000/svg" p-id="3384" width="32" height="32" xmlns:xlink="http://www.w3.org/1999/xlink"><defs><style type="text/css"></style></defs><path d="M132.68 361.39l327.85 118v380.44l-327.85-118V361.39m-28.33-40.29v440.67l384.5 138.35V459.45L104.35 321.1zM891.32 361.39v380.47l-327.85 118v-380.5l327.85-118m28.33-40.29l-384.5 138.38v440.67l384.5-138.35V321.1zM517.36 154.55L810.2 275.26l-298 113.08-297.32-107.15 302.48-126.64m-0.08-30.67L136.83 283.16l375.59 135.38 374.75-142.19-369.89-152.47z" p-id="3385" fill="#currentColor"></path><path d="M661 523.46v232.35s139.26-43.19 141.62-163.73S741.21 471.53 661 523.46z" fill="#currentColor" p-id="3386"></path><path d="M646.8 775V515.76l6.46-4.19c53.22-34.43 94.93-43.67 123.93-27.53 27.35 15.23 40.66 51.67 39.55 108.31-2.53 129.29-145.5 175.1-151.58 177z m28.32-243.77V735c35.84-16 111.67-59.82 113.3-143.2 0.88-44.71-7.77-73.42-25-83-17.68-9.86-48.86-1.8-88.3 22.46zM355 518.34q16.38 16.17 12.54 43.54-5.39 38.24-43.15 50.37 18.45 5.91 27.1 19.58 9 13.7 6.25 33-4.2 29.87-27.74 49.14-24.12 19-56.76 19-29.55 0-47.26-15.55-21.42-18.42-18.88-56.35h19.26q-2.72 28.29 13.83 43.21 13.23 12.13 35 12.13 25.19 0 43.42-14.61a57.11 57.11 0 0 0 20-36.38q2.88-20.53-9.67-33-12-11.81-36-11.81h-19.53l2.19-15.55h17.72q23.31 0 38.22-10.88 14.06-11.51 16.85-31.4 2.76-19.59-8.29-31.72Q328.43 519 304.8 519t-38.87 13.38q-15.84 13-22 37H225q7.17-31.07 30-49.44 21.75-17.72 52.23-17.72 31.02-0.05 47.77 16.12z" p-id="3387" fill="#currentColor"></path><path d="M273.19 738.21c-20.94 0-38-5.68-50.77-16.88-15.48-13.28-22.43-33.69-20.62-60.62l0.33-5h30.08l-0.56 5.82c-1.66 17.24 2.29 29.91 12.1 38.76 7.9 7.25 18.17 10.76 31.43 10.76 15.48 0 29-4.52 40.11-13.44a51.41 51.41 0 0 0 18.08-33c1.7-12-1-21.34-8.14-28.46C318.29 629.42 307.44 626 293 626h-25.69l3.69-26.22h22.34c14.32 0 26.13-3.31 35.08-9.85 8.16-6.68 13.05-15.85 14.73-27.86 1.63-11.5-0.65-20.47-6.95-27.42-6.62-6.84-17.21-10.38-31.38-10.38-14.36 0-26.26 4.06-35.37 12.06-9.74 8-16.55 19.54-20.35 34.33l-1 4h-29.81l1.5-6.5c5-21.82 15.73-39.45 31.79-52.38 15.4-12.53 34.1-18.9 55.57-18.9 22.07 0 39.39 5.94 51.49 17.66v0.05c12.13 12 16.86 28.14 14.07 48-3.26 23.17-14.9 39.86-34.66 49.77A48.87 48.87 0 0 1 355.92 629c6.63 10.12 9 22.44 7 36.54C360 686.7 350 704.37 333.32 718c-17.05 13.44-37.24 20.21-60.13 20.21z m-61-71.83c-0.54 21.16 5.12 36.54 17.22 46.93 10.8 9.49 25.52 14.27 43.8 14.27 20.44 0 38.44-6 53.48-17.83 14.67-12 23.13-27 25.76-45.7 1.63-11.64-0.14-21.22-5.44-29.31s-13.09-13.86-24.26-17.44l-15.77-5 15.76-5.06c23.28-7.47 36.21-22.53 39.5-46.05 2.35-16.63-1.25-29.38-11-39-10.06-9.72-24.89-14.66-44.09-14.66-19 0-35.41 5.56-48.88 16.53-12.57 10.13-21.43 23.56-26.41 40h8c4.56-15.12 12.17-27.15 22.65-35.78 11-9.64 25.23-14.59 42.25-14.59s30.33 4.63 39.13 13.75c8.54 9.4 11.78 21.53 9.72 36.15s-8.35 26.27-18.75 34.77c-11 8.08-24.95 12.08-41.58 12.08h-13.1l-0.7 4.93H293c17.32 0 30.67 4.49 39.69 13.33 9.6 9.53 13.37 22.14 11.21 37.5a62.54 62.54 0 0 1-21.83 39.66c-13.21 10.59-28.93 15.9-46.89 15.9-15.82 0-28.8-4.55-38.57-13.53-11.09-10-16.43-24.05-15.9-41.81z" p-id="3388" fill="#currentColor"></path></svg>
