<?xml version="1.0" standalone="no"?><!DOCTYPE svg PUBLIC "-//W3C//DTD SVG 1.1//EN" "http://www.w3.org/Graphics/SVG/1.1/DTD/svg11.dtd"><svg t="1584015230351" class="icon" viewBox="0 0 1024 1024" version="1.1" xmlns="http://www.w3.org/2000/svg" p-id="1153" width="32" height="32" xmlns:xlink="http://www.w3.org/1999/xlink"><defs><style type="text/css"></style></defs><path d="M932 442.016L560 84q-20-18.016-48-18.016t-48 18.016L92 442.016q-11.008 10.016-12 24.992t8.992 26.016q10.016 11.008 24.992 12t26.016-8.992L512 138.016l372 358.016q11.008 10.016 26.016 8.992t24.992-12q10.016-11.008 8.992-26.016t-12-24.992z m-99.008 132.992q-15.008 0-25.504 10.496t-10.496 25.504v276.992h-143.008v-240q0-30.016-20.992-51.008T581.984 576h-140q-30.016 0-51.008 20.992t-20.992 51.008v240H226.976v-276.992q0-15.008-10.496-25.504t-25.504-10.496q-15.008 0-25.504 10.496t-10.496 25.504v276.992q0 30.016 20.992 51.008T226.976 960h570.016q30.016 0 51.008-20.992t20.992-51.008v-276.992q0-15.008-10.496-25.504t-25.504-10.496zM442.016 648h140v240h-140v-240z" p-id="1154" fill="#409eff"></path></svg>
