<?xml version="1.0" standalone="no"?><!DOCTYPE svg PUBLIC "-//W3C//DTD SVG 1.1//EN" "http://www.w3.org/Graphics/SVG/1.1/DTD/svg11.dtd"><svg t="1583678119774" class="icon" viewBox="0 0 1024 1024" version="1.1" xmlns="http://www.w3.org/2000/svg" p-id="2593" xmlns:xlink="http://www.w3.org/1999/xlink" width="32" height="32"><defs><style type="text/css"></style></defs><path d="M512.6 810.6H511.3c-5.3-0.1-10.2-2.7-13.2-7.1-47.5-70.2-87.1-139.1-117.6-204.9-24.5-52.9-43.3-103.9-55.8-151.6-21.6-82.5-17.1-127.1-16.9-129 0.1-0.5 0.1-0.9 0.2-1.4 2.7-51.7 24.8-99.9 62.2-135.9 38.1-36.7 88.3-56.9 141.3-56.9h1c53 0 103.1 20.2 141.3 56.9 37.4 36 59.5 84.2 62.2 135.9 0.1 0.4 0.2 0.9 0.2 1.4 0.2 1.9 4.7 46.4-16.9 129-12.5 47.7-31.3 98.7-55.8 151.6-30.5 65.8-70.1 134.7-117.6 204.9-3 4.4-7.9 7-13.2 7.1h-0.1zM339.7 323.3c-0.5 8.8-1.4 49.5 16.8 118.1 18.3 68.9 60.2 180.1 155.4 324.9 95.3-144.7 137.1-256 155.4-324.9 18.3-68.5 17.3-109.2 16.8-118.1-0.2-0.9-0.3-1.9-0.4-2.9-1.8-44.3-20.5-85.7-52.5-116.5C599.3 173 557.1 156 512.5 156h-1c-44.5 0-86.8 17-118.9 47.9-32 30.8-50.7 72.2-52.5 116.5 0 1-0.2 2-0.4 2.9z" fill="#ffffff" p-id="2594"></path><path d="M512 454.4c-66.4 0-120.4-54-120.4-120.4s54-120.4 120.4-120.4 120.4 54 120.4 120.4-54 120.4-120.4 120.4z m0-208.5c-48.6 0-88.2 39.5-88.2 88.2s39.5 88.2 88.2 88.2 88.2-39.5 88.2-88.2-39.6-88.2-88.2-88.2z" fill="#EF7F1A" p-id="2595"></path><path d="M512 900.2c-73.5 0-142.8-7-195.1-19.7-26.3-6.4-47.3-14-62.2-22.6-19.5-11.2-29.3-24.5-29.3-39.6 0-19.1 15.9-35.3 47.2-48.2 24.9-10.3 60-18.8 101.7-24.7 8.8-1.2 17 4.9 18.2 13.7 1.2 8.8-4.9 17-13.7 18.2-100.1 14.1-121.1 37.1-121.1 41 0 0.8 2.3 5.4 13.2 11.6 12.1 7 30.7 13.6 53.8 19.2C374.4 861.3 441 868 512 868c71 0 137.6-6.7 187.5-18.8 23-5.6 41.6-12.3 53.8-19.2 10.8-6.2 13.2-10.8 13.2-11.6 0-3.9-21.1-26.9-121.1-41-8.8-1.2-14.9-9.4-13.7-18.2 1.2-8.8 9.4-14.9 18.2-13.7 41.6 5.9 76.8 14.4 101.7 24.7 31.3 12.9 47.2 29.2 47.2 48.2 0 15.1-9.9 28.4-29.3 39.6-14.9 8.6-35.9 16.2-62.2 22.6-52.5 12.6-121.8 19.6-195.3 19.6z" fill="#ffffff" p-id="2596"></path></svg>
