<?xml version="1.0" standalone="no"?><!DOCTYPE svg PUBLIC "-//W3C//DTD SVG 1.1//EN" "http://www.w3.org/Graphics/SVG/1.1/DTD/svg11.dtd"><svg t="1583578549385" class="icon" viewBox="0 0 1024 1024" version="1.1" xmlns="http://www.w3.org/2000/svg" p-id="4877" xmlns:xlink="http://www.w3.org/1999/xlink" width="32" height="32"><defs><style type="text/css"></style></defs><path d="M819.348 204.651c-78.654-78.653-187.23-127.384-307.239-127.384-120.014 0-228.591 48.731-307.349 127.385-78.763 79.07-127.28 187.647-127.28 307.338 0 120.129 48.518 228.705 127.28 307.359 78.758 78.862 187.335 127.385 307.349 127.385 120.009 0 228.585-48.522 307.238-127.385 78.545-78.654 127.172-187.23 127.172-307.359 0.001-119.691-48.626-228.268-127.171-307.339z m-47.339 47.438c62.087 62.202 102.165 146.414 107.398 239.82H762.415a34.738 34.738 0 0 0-10.182-9.449c-2.909-73.521-16.636-141.713-37.547-200.201a34.282 34.282 0 0 0 3.799-10.044c15.351-8.524 30.322-17.957 44.546-28.883a235.98 235.98 0 0 1 8.978 8.757z m-93.824 472.038a34.389 34.389 0 0 0-9.187 4.158c-3.31-1.279-6.578-2.561-9.84-3.834-36.949-13.804-75.989-22.486-116.781-25.272a34.686 34.686 0 0 0-10.396-10.692v-147.64a34.743 34.743 0 0 0 9.411-9.194h164.549a34.753 34.753 0 0 0 6.494 7.052c-2.826 68.379-14.988 131.783-34.25 185.422zM483.71 699.043c-41.362 2.645-80.909 11.395-118.117 25.408a1391.563 1391.563 0 0 0-8.398 3.129 34.275 34.275 0 0 0-11.443-4.236c-18.99-53.161-31.007-115.857-33.729-183.451a34.707 34.707 0 0 0 8.037-8.24h164.549a34.747 34.747 0 0 0 7.619 7.935v150.158a34.665 34.665 0 0 0-8.518 9.297zM346.651 298.118a34.33 34.33 0 0 0 6.767-2.99c3.992 1.594 7.926 3.114 11.643 4.629 37.75 14.02 77.378 22.967 118.796 25.444a34.712 34.712 0 0 0 8.369 8.302v150.909a34.737 34.737 0 0 0-7.308 7.497H319.747a34.697 34.697 0 0 0-7.744-7.815c2.731-68.795 15.096-132.176 34.648-185.976z m193.482 27.096c41.605-2.457 81.397-11.41 119.025-25.457a1462.2 1462.2 0 0 0 9.724-3.846 34.293 34.293 0 0 0 9.022 3.155c19.467 53.907 31.741 117.365 34.549 186.216a34.67 34.67 0 0 0-6.2 6.626H541.081a34.723 34.723 0 0 0-9.1-8.756V333.355a34.696 34.696 0 0 0 8.152-8.141zM731.18 216.829c-9.238 6.752-18.851 13.046-28.891 18.671a34.29 34.29 0 0 0-9.752-3.925c-2.169-4.311-4.408-8.572-6.877-12.828-9.195-16.66-18.917-31.414-28.963-45.093 26.607 11.334 51.724 26.076 74.483 43.175z m-158.37-67.54c29.171 17.954 55.999 48.939 77.8 88.913 1.595 2.984 3.188 5.871 4.735 8.754a34.302 34.302 0 0 0-4.866 13.376 344.326 344.326 0 0 0-5.536 2.235c-32.762 11.948-67.932 19.989-104.824 22.593a34.698 34.698 0 0 0-8.137-8.121V144.807c13.788 0.416 27.576 2.345 40.828 4.482z m-121.401 0c13.251-1.71 27.034-4.066 40.817-4.482v132.084a34.697 34.697 0 0 0-8.335 8.254c-36.83-2.619-72.035-10.651-104.834-22.578-2.946-1.254-5.957-2.436-8.901-3.629a34.27 34.27 0 0 0-2.873-8.799c2.058-3.956 4.144-7.858 6.327-11.938 22.009-39.972 48.835-70.958 77.799-88.912z m-83.68 24.366c-10.473 13.679-20.194 28.433-29.281 45.093-2.279 4.044-4.401 8.095-6.51 12.187a34.283 34.283 0 0 0-11.676 3.628c-9.244-5.384-18.357-11.354-27.338-17.733 23.082-17.1 47.979-31.842 74.805-43.175zM252.21 252.089c2.564-2.981 6.192-5.984 8.977-8.757 13.032 10.014 26.702 18.761 40.823 26.716a34.342 34.342 0 0 0 6.426 15.688c-20.721 58.027-33.586 125.395-36.492 197.92a34.703 34.703 0 0 0-8.359 8.253H145.02c4.702-93.407 44.988-177.618 107.19-239.82z m0 520.018c-62.202-61.982-102.488-146.193-107.19-240.455h118.254a34.688 34.688 0 0 0 8.689 8.704c2.985 73.728 16.201 142.457 37.458 200.302a34.305 34.305 0 0 0-3.845 11.147c-15.392 9.128-30.261 18.771-44.391 29.071l-8.975-8.769z m40.714 35.688a311.822 311.822 0 0 1 30.379-20.045 34.4 34.4 0 0 0 7.367 2.928c2.531 5.044 5.042 10.078 7.778 14.773 9.087 16.243 18.809 31.413 29.281 44.883-26.826-11.541-51.723-25.438-74.805-42.539z m158.485 67.332c-28.964-18.601-55.79-49.158-77.799-88.913a726.847 726.847 0 0 1-5.156-9.808 34.332 34.332 0 0 0 5.114-12.496 75.193 75.193 0 0 1 5.489-1.634c33.434-13.165 69.561-20.757 107.006-23.342a34.68 34.68 0 0 0 6.163 5.985v133.836c-13.783-0.208-27.566-1.49-40.817-3.628z m121.401 0c-13.252 2.138-27.04 3.42-40.828 3.629V746.18a34.711 34.711 0 0 0 7.866-7.132c36.991 2.692 72.252 10.259 105.095 23.229a76.898 76.898 0 0 1 9.097 2.909 34.292 34.292 0 0 0 3.204 8.498c-2.125 4.17-4.374 8.303-6.634 12.53-21.801 39.755-48.63 70.312-77.8 88.913z m83.887-24.793c10.473-13.47 19.768-28.64 28.963-44.883 2.674-4.457 5.087-9.222 7.423-14.009a34.281 34.281 0 0 0 9.24-2.837c10.027 5.743 19.629 12.092 28.856 19.189-22.758 17.102-47.875 30.999-74.482 42.54z m115.312-78.227l-8.978 8.77c-13.035-9.499-26.708-18.434-40.996-26.927a34.33 34.33 0 0 0-6.305-16.732c20.459-56.807 33.61-123.85 36.485-195.668a34.724 34.724 0 0 0 10.511-9.897h116.681c-5.233 94.261-45.311 178.472-107.398 240.454z" fill="#ffffff" p-id="4878"></path></svg>